<?xml version="1.0" standalone="no"?>
<!DOCTYPE svg PUBLIC "-//W3C//DTD SVG 20010904//EN"
 "http://www.w3.org/TR/2001/REC-SVG-20010904/DTD/svg10.dtd">
<svg version="1.0" xmlns="http://www.w3.org/2000/svg"
 width="500.000000pt" height="500.000000pt" viewBox="0 0 500.000000 500.000000"
 preserveAspectRatio="xMidYMid meet">
<metadata>
Created by potrace 1.16, written by Peter Selinger 2001-2019
</metadata>
<g transform="translate(0.000000,500.000000) scale(0.100000,-0.100000)"
fill="#000000" stroke="none">
<path d="M3591 4411 l-514 -86 -219 -194 -218 -194 1 -371 0 -371 209 -195
c115 -107 235 -218 266 -247 l56 -52 -61 -148 c-34 -81 -61 -154 -61 -162 0
-22 144 -271 154 -268 14 5 785 621 785 629 1 3 -89 178 -199 388 l-200 381 0
202 1 202 291 200 c160 110 296 203 302 207 7 5 -3 35 -29 87 -21 45 -41 81
-45 80 -3 -1 -236 -40 -519 -88z m465 -39 c-2 -4 -131 -95 -285 -202 l-281
-194 0 -90 0 -91 -43 46 -42 47 -114 -12 -113 -12 6 66 c3 36 9 82 12 103 l7
38 -89 -6 c-49 -3 -111 -8 -139 -10 l-50 -5 50 46 c28 25 73 66 102 91 l52 44
433 74 c429 72 504 82 494 67z m-976 -419 c0 -5 -7 -51 -15 -103 -8 -52 -12
-96 -10 -99 3 -2 73 2 156 10 l151 15 59 -69 59 -68 0 -70 0 -70 186 -355
c102 -195 184 -359 182 -364 -2 -5 -140 -120 -308 -254 -229 -184 -308 -242
-316 -233 -6 7 -22 32 -36 57 l-26 45 60 145 c33 80 64 155 68 167 8 20 -19
49 -270 284 l-280 262 1 316 0 316 33 27 c29 24 43 27 161 36 72 5 133 10 138
11 4 0 7 -2 7 -6z"/>
<path d="M2330 3705 l-195 -195 -377 0 -377 0 -225 185 c-125 102 -228 185
-231 185 -3 0 -5 -235 -5 -523 l0 -522 408 -408 c224 -224 412 -407 417 -407
6 0 184 174 398 388 l387 387 -2 553 -3 552 -195 -195z m-1150 -170 l154 -125
425 0 426 0 122 122 123 123 0 -401 0 -401 -25 -23 c-25 -23 -25 -23 -222 -17
l-198 7 -90 -292 -90 -293 -68 -3 c-62 -3 -68 -1 -76 20 -5 13 -49 152 -97
311 l-89 287 -203 -7 -202 -6 -25 23 -25 23 0 389 c0 213 2 388 3 388 2 0 73
-56 157 -125z m260 -937 c24 -79 46 -150 48 -158 3 -8 -63 52 -147 135 -83 82
-151 153 -151 157 0 5 46 8 103 8 l103 0 44 -142z m830 104 c0 -4 -68 -75
-151 -157 -84 -83 -149 -143 -147 -135 3 8 24 79 48 158 l43 142 104 0 c57 0
103 -3 103 -8z"/>
<path d="M2098 2223 l-368 -368 -305 305 -305 305 0 -450 0 -450 199 -505 198
-505 77 -3 76 -3 0 426 0 425 60 0 60 0 2 -422 3 -423 82 -3 c70 -2 83 0 91
15 5 10 71 219 148 465 l139 448 235 0 235 0 114 -432 c63 -238 118 -448 123
-466 l9 -32 89 0 90 0 0 739 0 738 -86 146 -86 146 -249 135 c-137 75 -252
136 -256 136 -5 0 -173 -165 -375 -367z m609 132 l201 -110 71 -121 71 -121 0
-506 0 -507 -48 0 -48 0 -69 263 c-37 144 -72 277 -77 295 l-9 32 -307 0 -307
0 -91 -293 -92 -292 -56 -3 -56 -3 0 256 0 255 -160 0 -160 0 0 -255 0 -255
-59 0 -59 0 -121 306 -121 306 0 316 0 317 260 -260 260 -260 378 378 c207
207 382 376 387 375 6 -2 101 -52 212 -113z"/>
</g>
</svg>
